# xmcd
#
# Track frame offsets: 
#        150
#        16325
#        34406
#        67002
#        84422
#        100442
#        115328
#        142271
#        155846
#        170217
#        186315
#
# Disc length: 2667 seconds
#
# Revision: 0
# Processed by: cddbd v1.5.2PL0 Copyright (c) Steve Scherf et al.
# Submitted via: ExactAudioCopy v0.99pb3
#
DISCID=a70a690b
DTITLE=Georges Brassens - Bobino 1976 (2)
DYEAR=2006
DGENRE=Chanson
TTITLE0=Histoire de faussaire
TTITLE1=La messe au pendu
TTITLE2=Supplique pour être enterré à la plage de Sète
TTITLE3=Les casseuses
TTITLE4=Les amours d'antan
TTITLE5=Les copains d'abord
TTITLE6=Mélanie
TTITLE7=Saturne
TTITLE8=La mauvaise réputation
TTITLE9=Je me suis fait tout petit
TTITLE10=Auprès de mon arbre
EXTD=
EXTT0=
EXTT1=
EXTT2=
EXTT3=
EXTT4=
EXTT5=
EXTT6=
EXTT7=
EXTT8=
EXTT9=
EXTT10=
PLAYORDER=
